<?xml version="1.0" encoding="utf-8"?>
<!-- Generator: Adobe Illustrator 22.1.0, SVG Export Plug-In . SVG Version: 6.00 Build 0)  -->
<svg version="1.1" id="Слой_1" xmlns="http://www.w3.org/2000/svg" xmlns:xlink="http://www.w3.org/1999/xlink" x="0px" y="0px"
	 viewBox="0 0 1300 500" style="enable-background:new 0 0 1300 500;" xml:space="preserve">
<style type="text/css">
	.st0{fill:#D9AD78;}
	.st1{fill:#E2B87C;stroke:#E2B87C;stroke-miterlimit:10;}
	.st2{fill:#E4BA7C;stroke:#E4BA7C;stroke-miterlimit:10;}
	.st3{fill:#E4B67B;stroke:#E4B67B;stroke-miterlimit:10;}
	.st4{fill:#DCB17B;stroke:#DCB17B;stroke-miterlimit:10;}
	.st5{fill:#DBAE78;stroke:#DBAE78;stroke-miterlimit:10;}
	.st6{fill:#E0B67A;}
	.st7{fill:#E1B47B;stroke:#E1B47B;stroke-miterlimit:10;}
	.st8{fill:#E4B67B;}
	.st9{fill:#DDB27B;stroke:#D8B17F;stroke-miterlimit:10;}
	.st10{fill:#CC9F72;}
	.st11{fill:#D0A375;}
	.st12{fill:#D1A675;stroke:#CDA476;stroke-miterlimit:10;}
	.st13{fill:#D0A375;stroke:#D0A375;stroke-miterlimit:10;}
	.st14{fill:#DCB17A;}
	.st15{fill:#DAAF77;}
	.st16{fill:#D4A876;}
	.st17{fill:#D1A675;}
	.st18{fill:#DAAC77;stroke:#DAAC77;stroke-miterlimit:10;}
	.st19{fill:#CA9D71;stroke:#CA9D71;stroke-miterlimit:10;}
	.st20{fill:#CB9E72;}
	.st21{fill:#C49871;}
	.st22{fill:#C29370;stroke:#C29370;stroke-miterlimit:10;}
	.st23{fill:#BA8C6D;}
	.st24{fill:#CDA073;stroke:#CDA073;stroke-miterlimit:10;}
	.st25{fill:#D3A775;}
	.st26{fill:#CFA274;stroke:#CFA274;stroke-miterlimit:10;}
	.st27{fill:#D4A876;stroke:#D4A876;stroke-miterlimit:10;}
	.st28{fill:#CC9F72;stroke:#CC9F72;stroke-miterlimit:10;}
	.st29{fill:#CA9D71;}
	.st30{fill:#CB9E72;stroke:#CB9E72;stroke-miterlimit:10;}
	.st31{fill:#C79971;}
	.st32{fill:#C79A71;stroke:#C39972;stroke-miterlimit:10;}
	.st33{fill:#C49871;stroke:#C49871;stroke-miterlimit:10;}
	.st34{fill:#C3936F;}
	.st35{fill:#C0916E;stroke:#C0916E;stroke-miterlimit:10;}
	.st36{fill:#BB8D6E;}
	.st37{fill:#B3846B;}
	.st38{fill:#C59972;stroke:#C59972;stroke-miterlimit:10;}
	.st39{fill:#C2956F;stroke:#C2956F;stroke-miterlimit:10;}
	.st40{fill:#BC8F6D;}
	.st41{fill:#B9896D;}
	.st42{fill:#B5866C;stroke:#B5866C;stroke-miterlimit:10;}
	.st43{fill:#B08169;}
	.st44{fill:#B3846A;}
	.st45{fill:#A97966;stroke:#A97966;stroke-miterlimit:10;}
	.st46{fill:#A77664;}
	.st47{fill:#BE916F;}
	.st48{fill:#AD7C67;stroke:#AD7C67;stroke-miterlimit:10;}
	.st49{fill:#AC7B68;}
	.st50{fill:#A67565;}
	.st51{fill:#B3846A;stroke:#B3846A;stroke-miterlimit:10;}
	.st52{fill:#AE7E6A;}
	.st53{fill:#B3846B;stroke:#B3846B;stroke-miterlimit:10;}
	.st54{fill:#AD7D67;stroke:#AD7D67;stroke-miterlimit:10;}
	.st55{fill:#BB8D6E;stroke:#BB8D6E;stroke-miterlimit:10;}
	.st56{fill:#B08169;stroke:#B08169;stroke-miterlimit:10;}
	.st57{fill:#A67666;}
	.st58{fill:#A47265;stroke:#A47265;stroke-miterlimit:10;}
	.st59{fill:#9F6D63;}
	.st60{fill:#986761;stroke:#986761;stroke-miterlimit:10;}
	.st61{fill:#88555C;stroke:#88555C;stroke-miterlimit:10;}
	.st62{fill:#905F5F;stroke:#905F5F;stroke-miterlimit:10;}
	.st63{fill:#A16F63;stroke:#A16F63;stroke-miterlimit:10;}
	.st64{fill:#94635F;}
	.st65{fill:#9E6D63;stroke:#9E6D63;stroke-miterlimit:10;}
	.st66{fill:#9A6862;}
	.st67{fill:#A37164;stroke:#A37164;stroke-miterlimit:10;}
	.st68{fill:#9F6F62;stroke:#9F6F62;stroke-miterlimit:10;}
	.st69{fill:#9A6A61;stroke:#9A6A61;stroke-miterlimit:10;}
	.st70{fill:#966561;stroke:#966561;stroke-miterlimit:10;}
	.st71{fill:#946260;}
	.st72{fill:#92615E;stroke:#92615E;stroke-miterlimit:10;}
	.st73{fill:#976760;}
	.st74{fill:#8B585B;}
	.st75{fill:#87545B;stroke:#87545B;stroke-miterlimit:10;}
	.st76{fill:#8E5A5D;stroke:#8E5A5D;stroke-miterlimit:10;}
	.st77{fill:#8C595C;stroke:#8C595C;stroke-miterlimit:10;}
	.st78{fill:#915F5E;}
	.st79{fill:#89565A;}
	.st80{fill:#8F5C5E;stroke:#8F5C5E;stroke-miterlimit:10;}
	.st81{fill:#824E59;}
	.st82{fill:#835059;stroke:#835059;stroke-miterlimit:10;}
	.st83{fill:#7D4957;stroke:#7D4957;stroke-miterlimit:10;}
	.st84{fill:#7C4957;stroke:#7C4957;stroke-miterlimit:10;}
	.st85{fill:#8A575B;}
	.st86{fill:#85525B;stroke:#85525B;stroke-miterlimit:10;}
	.st87{fill:#835058;}
	.st88{fill:#734355;stroke:#734355;stroke-miterlimit:10;}
	.st89{fill:#6D4154;stroke:#6D4154;stroke-miterlimit:10;}
	.st90{fill:#754354;}
	.st91{fill:#7E4C59;stroke:#7E4C59;stroke-miterlimit:10;}
	.st92{fill:#824F5A;}
	.st93{fill:#7A4655;}
	.st94{fill:#754354;stroke:#754354;stroke-miterlimit:10;}
	.st95{fill:#704255;stroke:#704255;stroke-miterlimit:10;}
	.st96{fill:#6C4053;stroke:#6C4053;stroke-miterlimit:10;}
	.st97{fill:#724355;stroke:#724355;stroke-miterlimit:10;}
	.st98{fill:#684054;}
	.st99{fill:#684054;stroke:#684054;stroke-miterlimit:10;}
	.st100{fill:#6A4054;}
	.st101{fill:#633E54;stroke:#633E54;stroke-miterlimit:10;}
	.st102{fill:#653F56;}
	.st103{fill:#5D3C53;stroke:#5D3C53;stroke-miterlimit:10;}
	.st104{fill:#5C3B53;stroke:#5C3B53;stroke-miterlimit:10;}
	.st105{fill:#5A3A52;}
	.st106{fill:#623E55;stroke:#623E55;stroke-miterlimit:10;}
	.st107{fill:#603C53;}
	.st108{fill:#613D54;}
	.st109{fill:#583950;stroke:#583950;stroke-miterlimit:10;}
	.st110{fill:#5A3A52;stroke:#5A3A52;stroke-miterlimit:10;}
	.st111{fill:#553850;stroke:#553850;stroke-miterlimit:10;}
	.st112{fill:#52374F;}
	.st113{fill:#54374F;stroke:#54374F;stroke-miterlimit:10;}
	.st114{fill:#51354E;}
	.st115{fill:#593A51;stroke:#593A51;stroke-miterlimit:10;}
	.st116{fill:#5B3B52;}
	.st117{fill:#55384F;stroke:#55384F;stroke-miterlimit:10;}
	.st118{fill:#CDA073;}
</style>
<polygon class="st0" points="106.8,26.1 13.5,119.9 60.1,223.8 192,153.4 "/>
<polygon class="st1" points="0,244 51.5,238.9 60.1,223.8 0,86.2 "/>
<polygon class="st2" points="0,304.7 51.5,238.9 0,244 "/>
<polygon class="st3" points="0,40.2 106.8,26.1 13.5,119.9 0,86.2 "/>
<polygon class="st4" points="0,37.8 223.1,-2.7 106.8,26.1 0,40.2 "/>
<polygon class="st5" points="0,-2.7 0,37.8 223.1,-2.7 "/>
<polygon class="st6" points="0,500.4 13.4,500.4 69.6,436.8 13.9,443.2 0,411.2 "/>
<polygon class="st7" points="51.5,238.9 75,332.2 75,403 0,354.2 0,304.7 "/>
<polygon class="st8" points="0,354.2 0,411.2 13.9,443.2 75,403 "/>
<polygon class="st9" points="13.9,443.2 69.6,436.8 75,403 "/>
<polygon class="st10" points="223.1,-2.7 239.9,-2.7 255.8,65 172.6,9.8 "/>
<polygon class="st11" points="192,153.4 255.8,66.4 106.8,26.1 "/>
<polygon class="st12" points="141.5,17.5 255.8,66.4 106.8,26.1 "/>
<polygon class="st13" points="172.6,9.8 141.5,17.5 255.8,66.4 255.8,65 "/>
<polygon class="st14" points="13.4,500.4 34.8,500.4 120.9,442 69.6,436.8 "/>
<polygon class="st15" points="69.6,436.8 75,403 119.1,442 "/>
<polygon class="st16" points="34.8,500.4 231.3,500.4 290.2,494.6 119.1,442 "/>
<polygon class="st17" points="174.2,367.7 119.1,442 218,386.9 "/>
<polygon class="st18" points="75,332.2 75,403 119.1,442 174.2,367.7 "/>
<polygon class="st10" points="218,386.9 314.2,471.2 119.1,442 "/>
<polygon class="st19" points="290.2,494.6 314.2,471.2 119.1,442 "/>
<polygon class="st20" points="311.7,500.4 290.2,494.6 231.3,500.4 "/>
<polygon class="st21" points="314.2,471.2 331.3,466.1 378.4,500.4 311.7,500.4 290.2,494.6 "/>
<polygon class="st21" points="228,395.6 331.3,466.1 314.2,471.2 "/>
<polygon class="st22" points="215.9,388 308.5,342.6 405.5,407.3 331.3,466.1 "/>
<polygon class="st19" points="174.2,367.7 308.5,342.6 218,386.9 "/>
<polygon class="st23" points="405.5,407.3 405.5,500.4 378.4,500.4 331.3,466.1 "/>
<polygon class="st24" points="308.5,342.6 143,327.5 174.2,364.7 "/>
<polygon class="st15" points="124.6,248.8 125.4,252.1 143,327.5 174.2,367.7 75,332.2 51.5,238.9 60.1,223.8 "/>
<polygon class="st25" points="163.6,238.9 124.6,248.8 143,327.5 "/>
<polygon class="st26" points="259.3,236.6 163.6,238.9 143,327.5 "/>
<polygon class="st27" points="192,153.4 163.6,238.9 128.5,247.8 60.1,223.8 "/>
<polygon class="st28" points="192,153.4 163.6,238.9 259.3,236.6 241.4,157.8 "/>
<polygon class="st29" points="259.3,236.6 308.5,342.6 143,327.5 "/>
<polygon class="st30" points="255.8,66.4 241.4,157.8 192,153.4 "/>
<polygon class="st31" points="305,65 255.8,65 241.4,157.8 "/>
<polygon class="st32" points="239.9,-2.7 299.9,-0.9 255.8,65 "/>
<polygon class="st33" points="305,65 299.9,-0.9 255.8,65 "/>
<polygon class="st34" points="431.9,-0.9 299.9,-0.9 239.9,-2.7 406.5,-2.7 "/>
<polygon class="st35" points="305,65 378,65 299.9,-0.9 "/>
<polygon class="st36" points="413.5,116.6 305,65 378,65 "/>
<g>
	<polygon class="st36" points="431.9,-0.9 378,65 299.9,-0.9 	"/>
</g>
<polygon class="st37" points="413.5,116.6 515.7,29 431.9,-0.9 378,65 "/>
<polygon class="st22" points="241.4,157.8 413.5,116.6 305,65 "/>
<polygon class="st38" points="259.3,236.6 338.9,208.9 241.4,157.8 "/>
<polygon class="st39" points="308.5,342.6 354.5,262 259.3,236.6 "/>
<polygon class="st22" points="338.9,208.9 354.5,262 259.3,236.6 "/>
<polygon class="st40" points="308.5,342.6 409.7,299.3 354.5,262 "/>
<polygon class="st41" points="405.5,407.3 455.6,313.8 409.7,299.3 308.5,342.6 "/>
<polygon class="st42" points="405.5,500.4 421.8,500.4 486.2,411.2 405.5,407.3 "/>
<polygon class="st43" points="546.6,461.5 486.2,411.2 421.8,500.4 455.6,500.4 "/>
<polygon class="st44" points="455.6,313.8 486.2,411.2 405.5,407.3 "/>
<polygon class="st45" points="640.1,350.3 455.6,313.8 486.2,411.2 "/>
<polygon class="st46" points="546.6,461.5 486.2,411.2 640.1,350.3 "/>
<polygon class="st47" points="413.5,116.6 382.1,200.6 338.9,208.9 241.4,157.8 "/>
<polygon class="st48" points="515.7,29 559.1,14.1 431.9,-0.9 "/>
<polygon class="st49" points="538.7,153.4 413.5,116.6 515.7,29 593.4,89.2 "/>
<polygon class="st50" points="559.1,14.1 593.4,89.2 515.7,29 "/>
<polygon class="st51" points="538.7,153.4 382.1,200.6 413.5,116.6 "/>
<polygon class="st52" points="538.7,162.8 382.1,200.6 538.7,153.4 "/>
<polygon class="st53" points="547.9,166.6 390.2,254.3 382.1,200.6 538.7,162.8 "/>
<polygon class="st54" points="583.2,254.3 390.2,254.3 547.9,166.6 "/>
<polygon class="st55" points="338.9,208.9 354.5,262 409.7,299.3 451.7,312.6 390.2,254.3 382.1,200.6 "/>
<polygon class="st56" points="583.2,254.3 451.7,313.8 390.2,254.3 "/>
<polygon class="st57" points="640.1,350.3 445.9,315.2 583.2,254.3 "/>
<polygon class="st58" points="455.6,500.4 546.6,461.5 812.4,487 650,500.4 "/>
<polygon class="st59" points="640.1,350.3 697.9,395.6 546.6,461.5 "/>
<polygon class="st60" points="812.4,487 697.9,395.6 546.6,461.5 "/>
<polygon class="st61" points="650,500.4 812.4,487 990.1,500.4 "/>
<polygon class="st62" points="697.9,395.6 725.4,395.6 812.4,487 "/>
<polygon class="st63" points="406.5,-2.7 431.9,-0.9 559.1,14.1 669,-2.7 "/>
<polygon class="st64" points="761.2,55.2 559.1,14.1 669,-2.7 822.7,-2.7 "/>
<polygon class="st65" points="593.4,89.2 559.1,14.1 761.2,55.2 "/>
<polygon class="st66" points="677.1,180.5 593.4,89.2 761.2,55.2 "/>
<polygon class="st67" points="547.9,166.6 538.7,162.8 538.7,153.4 593.4,89.2 677.3,178.7 "/>
<polygon class="st67" points="584.6,256.6 659.1,177 656,176.7 547.9,166.6 "/>
<polygon class="st68" points="640.1,350.3 633,262 659.1,177 584.6,256.6 "/>
<polygon class="st69" points="659.1,177 677.3,178.7 668.2,263.7 703.1,299.3 640.1,350.3 633,262 "/>
<polygon class="st66" points="697.9,395.6 691,336.2 703.1,299.3 640.1,350.3 "/>
<polygon class="st70" points="725.4,395.6 691,336.2 697.9,395.6 "/>
<polygon class="st71" points="760.5,337.8 703.1,299.3 691,336.2 725.4,395.6 "/>
<polygon class="st72" points="755.1,281 760.5,337.8 703.1,299.3 "/>
<polygon class="st73" points="677.3,178.7 755.1,281 703.1,299.3 668.2,263.7 "/>
<polygon class="st74" points="812.4,487 888,383.8 760.5,337.8 725.4,395.6 "/>
<polygon class="st75" points="888,353.3 888,383.8 760.5,337.8 "/>
<polygon class="st76" points="725.4,395.6 888,383.8 760.5,337.8 "/>
<polygon class="st77" points="755.1,281 888,353.3 760.5,337.8 "/>
<polygon class="st78" points="856.1,208.5 755.1,281 677.3,178.7 679.5,177 "/>
<polygon class="st79" points="888,353.3 856.1,208.5 755.1,281 "/>
<polygon class="st80" points="679.5,177 888,166.6 761.2,55.2 "/>
<polygon class="st77" points="856.1,208.5 888,166.6 679.5,177 "/>
<polygon class="st81" points="812.4,487 928.3,480.9 936.5,471.9 "/>
<polygon class="st82" points="888,383.8 936.5,471.9 812.4,487 "/>
<polygon class="st81" points="909.7,362.5 888,383.8 888,353.3 "/>
<polygon class="st83" points="1008.5,471.9 928.3,480.9 936.5,471.9 888,383.8 909.7,362.5 "/>
<polygon class="st84" points="888,353.3 994.1,248.8 909.7,362.5 "/>
<polygon class="st85" points="822.7,-2.7 761.2,55.2 847,-2.7 "/>
<polygon class="st75" points="924.1,61.9 761.2,55.2 847,-2.7 "/>
<polygon class="st86" points="888,166.6 889.3,162.9 924.1,61.9 761.2,55.2 "/>
<polygon class="st87" points="872.7,-2.7 847,-2.7 924.1,61.9 "/>
<polygon class="st88" points="1088.7,500.4 928.3,480.9 812.4,487 990.1,500.4 "/>
<polygon class="st89" points="1008.5,471.9 928.3,480.9 1088.7,500.4 1161.7,500.4 "/>
<polygon class="st90" points="994.1,248.8 1060.9,353.3 1008.5,471.9 909.7,362.5 "/>
<polygon class="st91" points="928.3,171.4 856.1,208.5 888,353.3 994.1,248.8 "/>
<polygon class="st92" points="888,166.6 856.1,208.5 928.3,171.4 "/>
<polygon class="st91" points="924.1,61.9 928.3,171.4 888,166.6 "/>
<polygon class="st93" points="872.7,-2.7 919,-2.7 1094.9,65 924.1,61.9 "/>
<polygon class="st94" points="928.3,171.4 924.1,61.9 1094.9,65 "/>
<polygon class="st95" points="994.1,248.8 928.3,171.4 1208,196.2 "/>
<polygon class="st96" points="1094.9,65 928.3,171.4 1208,196.2 "/>
<polygon class="st97" points="919,-2.7 1094.9,65 1177.1,9.8 1089.7,-1.8 "/>
<polygon class="st95" points="1060.9,353.3 1088.7,284 994.1,248.8 "/>
<polygon class="st89" points="1008.5,471.9 1134.7,405.9 1060.9,353.3 "/>
<polygon class="st98" points="1203.9,425.8 1008.5,471.9 1134.7,405.9 "/>
<polygon class="st99" points="1165.1,336.2 1134.7,405.9 1060.9,353.3 "/>
<polygon class="st100" points="1088.7,284 1060.9,353.3 1165.1,336.2 "/>
<polygon class="st100" points="1208,196.2 1088.7,284 994.1,248.8 "/>
<polygon class="st101" points="1203.9,425.8 1273.2,487 1008.5,471.9 "/>
<polygon class="st102" points="1094.9,65 1169.8,61.9 1177.1,9.8 "/>
<polygon class="st101" points="1208,196.2 1169.8,61.9 1094.9,65 "/>
<polygon class="st103" points="1268.2,79.2 1169.8,61.9 1177.1,9.8 "/>
<polygon class="st104" points="1208,196.2 1253.4,171.4 1169.8,61.9 "/>
<polygon class="st105" points="1268.2,79.2 1253.4,171.4 1169.8,61.9 "/>
<polygon class="st101" points="1165.1,336.2 1088.7,284 1208,196.2 "/>
<polygon class="st106" points="1203.9,425.8 1227.3,417.5 1165.1,336.2 1134.7,405.9 "/>
<polygon class="st103" points="1222.9,318.7 1227.3,417.5 1165.1,336.2 "/>
<polygon class="st107" points="1183,277.7 1222.9,318.7 1165.1,336.2 "/>
<polygon class="st108" points="1008.5,471.9 1161.7,500.4 1275.8,500.4 1273.2,487 "/>
<polygon class="st109" points="1227.3,417.5 1203.9,425.8 1273.2,487 "/>
<polygon class="st110" points="1222.9,318.7 1288.5,302.3 1268.2,217 1183,277.7 "/>
<polygon class="st111" points="1227.3,417.5 1300,398.1 1300,344.8 1222.9,318.7 "/>
<polygon class="st112" points="1288.5,302.3 1300,344.8 1222.9,318.7 "/>
<polygon class="st113" points="1275.8,500.4 1300,500.4 1300,463.2 1227.3,416.6 1273.2,487 "/>
<polygon class="st114" points="1300,398.1 1227.3,417.5 1300,463.2 "/>
<polygon class="st115" points="1253.4,171.4 1268.2,217 1208,196.2 "/>
<polygon class="st116" points="1183,277.7 1208,196.2 1268.2,217 "/>
<polygon class="st117" points="1089.7,-1.8 1177.1,9.8 1268.2,79.2 1253.4,171.4 1300,344.8 1300,-2.7 "/>
<polygon class="st15" points="60.1,223.8 124.6,248.8 128.5,247.8 "/>
<polygon class="st118" points="308.5,342.6 174.2,367.7 143,327.5 174.2,364.7 "/>
</svg>
