<?xml version="1.0" encoding="utf-8"?>
<!-- Generator: Adobe Illustrator 22.1.0, SVG Export Plug-In . SVG Version: 6.00 Build 0)  -->
<svg version="1.1" id="Слой_1" xmlns="http://www.w3.org/2000/svg" xmlns:xlink="http://www.w3.org/1999/xlink" x="0px" y="0px"
	 viewBox="0 0 1300 500" style="enable-background:new 0 0 1300 500;" xml:space="preserve">
<style type="text/css">
	.st0{fill:#50A599;stroke:#50A599;stroke-miterlimit:10;}
	.st1{fill:#5AB4A3;stroke:#50B09E;stroke-miterlimit:10;}
	.st2{fill:#50B09F;}
	.st3{fill:#50A99A;stroke:#50A99A;stroke-miterlimit:10;}
	.st4{fill:#50A597;stroke:#50A597;stroke-miterlimit:10;}
	.st5{fill:#50B09F;stroke:#50B09F;stroke-miterlimit:10;}
	.st6{fill:#509991;}
	.st7{fill:#50B0A0;stroke:#50B0A0;stroke-miterlimit:10;}
	.st8{fill:#509C94;}
	.st9{fill:#50AC9C;}
	.st10{fill:#77ADA3;stroke:#77ADA3;stroke-miterlimit:10;}
	.st11{fill:#4B7F85;stroke:#4B7F85;stroke-miterlimit:10;}
	.st12{fill:#4C7F7B;stroke:#4C7F7B;stroke-miterlimit:10;}
	.st13{fill:#68AEA0;}
	.st14{fill:#C3936F;}
	.st15{fill:#509691;stroke:#509691;stroke-miterlimit:10;}
	.st16{fill:#4F918E;stroke:#4F918E;stroke-miterlimit:10;}
	.st17{fill:#4F918E;}
	.st18{fill:none;stroke:#4F918E;stroke-miterlimit:10;}
	.st19{fill:#4F8D8B;stroke:#4F8D8B;stroke-miterlimit:10;}
	.st20{fill:#61968C;stroke:#61968C;stroke-miterlimit:10;}
	.st21{fill:#4E8A89;stroke:#4E8A89;stroke-miterlimit:10;}
	.st22{fill:#4B7F85;}
	.st23{fill:#4D8487;stroke:#4D8487;stroke-miterlimit:10;}
	.st24{fill:#4A7981;}
	.st25{fill:#4F8F8D;stroke:#4F8F8D;stroke-miterlimit:10;}
	.st26{fill:#4C8286;stroke:#4C8286;stroke-miterlimit:10;}
	.st27{fill:#509C94;stroke:#509C94;stroke-miterlimit:10;}
	.st28{fill:#4D878A;stroke:#4D878A;stroke-miterlimit:10;}
	.st29{fill:#497680;stroke:#497680;stroke-miterlimit:10;}
	.st30{fill:#497880;stroke:#497880;stroke-miterlimit:10;}
	.st31{fill:#48747F;stroke:#48747F;stroke-miterlimit:10;}
	.st32{fill:#3F526D;stroke:#3F526D;stroke-miterlimit:10;}
	.st33{fill:#466C7B;stroke:#466C7B;stroke-miterlimit:10;}
	.st34{fill:#4C8187;stroke:#4C8187;stroke-miterlimit:10;}
	.st35{fill:#4A7981;stroke:#4A7981;stroke-miterlimit:10;}
	.st36{fill:#4C8185;stroke:#4C8185;stroke-miterlimit:10;}
	.st37{fill:#48737E;stroke:#48737E;stroke-miterlimit:10;}
	.st38{fill:#456979;stroke:#456979;stroke-miterlimit:10;}
	.st39{fill:#47707C;stroke:#47707C;stroke-miterlimit:10;}
	.st40{fill:#48747F;}
	.st41{fill:#426074;stroke:#426074;stroke-miterlimit:10;}
	.st42{fill:#446678;stroke:#446678;stroke-miterlimit:10;}
	.st43{fill:#3B4B67;stroke:#3B4B67;stroke-miterlimit:10;}
	.st44{fill:#40586F;stroke:#40586F;stroke-miterlimit:10;}
	.st45{fill:#456879;stroke:#456879;stroke-miterlimit:10;}
	.st46{fill:#3A425F;stroke:#3A425F;stroke-miterlimit:10;}
	.st47{fill:#40546F;stroke:#40546F;stroke-miterlimit:10;}
	.st48{fill:#3E516C;stroke:#3E516C;stroke-miterlimit:10;}
	.st49{fill:#3A4965;stroke:#3A4965;stroke-miterlimit:10;}
	.st50{fill:#3F506C;stroke:#3F506C;stroke-miterlimit:10;}
	.st51{fill:#383E5A;stroke:#383E5A;stroke-miterlimit:10;}
	.st52{fill:#3B4966;stroke:#3B4966;stroke-miterlimit:10;}
	.st53{fill:#3B4966;}
	.st54{fill:#3C4C68;stroke:#3C4C68;stroke-miterlimit:10;}
	.st55{fill:#344456;stroke:#33404F;stroke-miterlimit:10;}
	.st56{fill:#3D4E6A;stroke:#3D4E6A;stroke-miterlimit:10;}
	.st57{fill:#3B4A5F;stroke:#3D4E6A;stroke-miterlimit:10;}
	.st58{fill:#3B425E;stroke:#3B425E;stroke-miterlimit:10;}
	.st59{fill:#3A4662;}
	.st60{fill:#6AA99D;}
</style>
<polygon class="st0" points="106.8,26.1 13.5,119.9 60.1,223.8 192,153.4 "/>
<polygon class="st1" points="0,244 51.5,238.9 60.1,223.8 0,86.2 "/>
<polygon class="st2" points="0,304.7 51.5,238.9 0,244 "/>
<polygon class="st3" points="0,40.2 106.8,26.1 13.5,119.9 0,86.2 "/>
<polygon class="st4" points="0,37.8 223.1,-2.7 106.8,26.1 0,40.2 "/>
<polygon class="st5" points="0,-2.7 0,37.8 223.1,-2.7 "/>
<polygon class="st0" points="0,500.4 13.4,500.4 69.6,436.8 13.9,443.2 0,411.2 "/>
<polygon class="st1" points="51.5,238.9 75,332.2 75,403 0,354.2 0,304.7 "/>
<polygon class="st3" points="0,354.2 0,411.2 13.9,443.2 75,403 "/>
<polygon class="st6" points="13.9,443.2 69.6,436.8 75,403 "/>
<polygon class="st3" points="223.1,-2.7 239.9,-2.7 255.8,65 172.6,9.8 "/>
<polygon class="st3" points="192,153.4 255.8,66.4 106.8,26.1 "/>
<polygon class="st3" points="141.5,17.5 255.8,66.4 106.8,26.1 "/>
<polygon class="st7" points="172.6,9.8 141.5,17.5 255.8,66.4 255.8,65 "/>
<polygon class="st8" points="13.4,500.4 34.8,500.4 120.9,442 69.6,436.8 "/>
<polygon class="st8" points="69.6,436.8 75,403 119.1,442 "/>
<polygon class="st1" points="34.8,500.4 231.3,500.4 290.2,494.6 119.1,442 "/>
<polygon class="st7" points="174.2,367.7 119.1,442 218,386.9 "/>
<polygon class="st9" points="75,332.2 75,403 119.1,442 174.2,367.7 "/>
<polygon class="st10" points="218,386.9 314.2,471.2 119.1,442 "/>
<polygon class="st3" points="290.2,494.6 314.2,471.2 119.1,442 "/>
<polygon class="st4" points="311.7,500.4 290.2,494.6 231.3,500.4 "/>
<polygon class="st8" points="314.2,471.2 331.3,466.1 378.4,500.4 311.7,500.4 290.2,494.6 "/>
<polygon class="st6" points="228,395.6 331.3,466.1 314.2,471.2 "/>
<polygon class="st0" points="215.9,388 308.5,342.6 405.5,407.3 331.3,466.1 "/>
<polygon class="st0" points="174.2,367.7 308.5,342.6 218,386.9 "/>
<polygon class="st11" points="405.5,407.3 405.5,500.4 378.4,500.4 331.3,466.1 "/>
<polygon class="st12" points="308.5,342.6 143,327.5 174.2,364.7 "/>
<polygon class="st7" points="124.6,248.8 125.4,252.1 143,327.5 174.2,367.7 75,332.2 51.5,238.9 60.1,223.8 "/>
<polygon class="st13" points="163.6,238.9 124.6,248.8 143,327.5 "/>
<polygon class="st3" points="259.3,236.6 163.6,238.9 143,327.5 "/>
<polygon class="st8" points="192,153.4 163.6,238.9 128.5,247.8 60.1,223.8 "/>
<polygon class="st7" points="192,153.4 163.6,238.9 259.3,236.6 241.4,157.8 "/>
<polygon class="st8" points="259.3,236.6 308.5,342.6 143,327.5 "/>
<polygon class="st0" points="255.8,66.4 241.4,157.8 192,153.4 "/>
<polygon class="st3" points="305,65 255.8,65 241.4,157.8 "/>
<polygon class="st0" points="239.9,-2.7 299.9,-0.9 255.8,65 "/>
<polygon class="st8" points="305,65 299.9,-0.9 255.8,65 "/>
<polygon class="st14" points="431.9,-0.9 299.9,-0.9 239.9,-2.7 406.5,-2.7 "/>
<polygon class="st15" points="305,65 378,65 299.9,-0.9 "/>
<polygon class="st16" points="413.5,116.6 305,65 378,65 "/>
<g>
	<g>
		<g>
			<polygon class="st17" points="431.9,-0.9 378,65 299.9,-0.9 			"/>
			<polygon class="st18" points="431.9,-0.9 378,65 299.9,-0.9 			"/>
		</g>
	</g>
</g>
<polygon class="st19" points="413.5,116.6 515.7,29 431.9,-0.9 378,65 "/>
<polygon class="st15" points="241.4,157.8 413.5,116.6 305,65 "/>
<polygon class="st1" points="259.3,236.6 338.9,208.9 241.4,157.8 "/>
<polygon class="st16" points="308.5,342.6 354.5,262 259.3,236.6 "/>
<polygon class="st20" points="338.9,208.9 354.5,262 259.3,236.6 "/>
<polygon class="st11" points="308.5,342.6 409.7,299.3 354.5,262 "/>
<polygon class="st3" points="405.5,407.3 455.6,313.8 409.7,299.3 308.5,342.6 "/>
<polygon class="st21" points="405.5,500.4 421.8,500.4 486.2,411.2 405.5,407.3 "/>
<polygon class="st22" points="546.6,461.5 486.2,411.2 421.8,500.4 455.6,500.4 "/>
<polygon class="st23" points="455.6,313.8 486.2,411.2 405.5,407.3 "/>
<polygon class="st24" points="640.1,350.3 455.6,313.8 486.2,411.2 "/>
<polygon class="st11" points="546.6,461.5 486.2,411.2 640.1,350.3 "/>
<polygon class="st16" points="413.5,116.6 382.1,200.6 338.9,208.9 241.4,157.8 "/>
<polygon class="st11" points="515.7,29 559.1,14.1 431.9,-0.9 "/>
<polygon class="st25" points="538.7,153.4 413.5,116.6 515.7,29 593.4,89.2 "/>
<polygon class="st26" points="559.1,14.1 593.4,89.2 515.7,29 "/>
<polygon class="st11" points="538.7,153.4 382.1,200.6 413.5,116.6 "/>
<polygon class="st20" points="538.7,162.8 382.1,200.6 538.7,153.4 "/>
<polygon class="st27" points="547.9,166.6 390.2,254.3 382.1,200.6 538.7,162.8 "/>
<polygon class="st4" points="583.2,254.3 390.2,254.3 547.9,166.6 "/>
<polygon class="st2" points="338.9,208.9 354.5,262 409.7,299.3 451.7,312.6 390.2,254.3 382.1,200.6 "/>
<polygon class="st11" points="583.2,254.3 451.7,313.8 390.2,254.3 "/>
<polygon class="st28" points="640.1,350.3 445.9,315.2 583.2,254.3 "/>
<polygon class="st29" points="455.6,500.4 546.6,461.5 812.4,487 650,500.4 "/>
<polygon class="st30" points="640.1,350.3 697.9,395.6 546.6,461.5 "/>
<polygon class="st31" points="812.4,487 697.9,395.6 546.6,461.5 "/>
<polygon class="st32" points="650,500.4 812.4,487 990.1,500.4 "/>
<polygon class="st33" points="697.9,395.6 725.4,395.6 812.4,487 "/>
<polygon class="st34" points="406.5,-2.7 431.9,-0.9 559.1,14.1 669,-2.7 "/>
<polygon class="st35" points="761.2,55.2 559.1,14.1 669,-2.7 822.7,-2.7 "/>
<polygon class="st11" points="593.4,89.2 559.1,14.1 761.2,55.2 "/>
<polygon class="st30" points="677.1,180.5 593.4,89.2 761.2,55.2 "/>
<polygon class="st36" points="547.9,166.6 538.7,162.8 538.7,153.4 593.4,89.2 677.3,178.7 "/>
<polygon class="st11" points="584.6,256.6 659.1,177 656,176.7 547.9,166.6 "/>
<polygon class="st34" points="640.1,350.3 633,262 659.1,177 584.6,256.6 "/>
<polygon class="st37" points="659.1,177 677.3,178.7 668.2,263.7 703.1,299.3 640.1,350.3 633,262 "/>
<polygon class="st11" points="697.9,395.6 691,336.2 703.1,299.3 640.1,350.3 "/>
<polygon class="st24" points="725.4,395.6 691,336.2 697.9,395.6 "/>
<polygon class="st35" points="760.5,337.8 703.1,299.3 691,336.2 725.4,395.6 "/>
<polygon class="st38" points="755.1,281 760.5,337.8 703.1,299.3 "/>
<polygon class="st39" points="677.3,178.7 755.1,281 703.1,299.3 668.2,263.7 "/>
<polygon class="st40" points="812.4,487 888,383.8 760.5,337.8 725.4,395.6 "/>
<polygon class="st33" points="888,353.3 888,383.8 760.5,337.8 "/>
<polygon class="st38" points="725.4,395.6 888,383.8 760.5,337.8 "/>
<polygon class="st41" points="755.1,281 888,353.3 760.5,337.8 "/>
<polygon class="st38" points="856.1,208.5 755.1,281 677.3,178.7 679.5,177 "/>
<polygon class="st33" points="888,353.3 856.1,208.5 755.1,281 "/>
<polygon class="st42" points="679.5,177 888,166.6 761.2,55.2 "/>
<polygon class="st30" points="856.1,208.5 888,166.6 679.5,177 "/>
<polygon class="st43" points="812.4,487 928.3,480.9 936.5,471.9 "/>
<polygon class="st41" points="888,383.8 936.5,471.9 812.4,487 "/>
<polygon class="st38" points="909.7,362.5 888,383.8 888,353.3 "/>
<polygon class="st44" points="1008.5,471.9 928.3,480.9 936.5,471.9 888,383.8 909.7,362.5 "/>
<polygon class="st38" points="888,353.3 994.1,248.8 909.7,362.5 "/>
<polygon class="st45" points="822.7,-2.7 761.2,55.2 847,-2.7 "/>
<polygon class="st38" points="924.1,61.9 761.2,55.2 847,-2.7 "/>
<polygon class="st41" points="888,166.6 889.3,162.9 924.1,61.9 761.2,55.2 "/>
<polygon class="st39" points="872.7,-2.7 847,-2.7 924.1,61.9 "/>
<polygon class="st46" points="1088.7,500.4 928.3,480.9 812.4,487 990.1,500.4 "/>
<polygon class="st43" points="1008.5,471.9 928.3,480.9 1088.7,500.4 1161.7,500.4 "/>
<polygon class="st47" points="994.1,248.8 1060.9,353.3 1008.5,471.9 909.7,362.5 "/>
<polygon class="st41" points="928.3,171.4 856.1,208.5 888,353.3 994.1,248.8 "/>
<polygon class="st42" points="888,166.6 856.1,208.5 928.3,171.4 "/>
<polygon class="st45" points="924.1,61.9 928.3,171.4 888,166.6 "/>
<polygon class="st44" points="872.7,-2.7 919,-2.7 1094.9,65 924.1,61.9 "/>
<polygon class="st48" points="928.3,171.4 924.1,61.9 1094.9,65 "/>
<polygon class="st46" points="994.1,248.8 928.3,171.4 1208,196.2 "/>
<polygon class="st32" points="1094.9,65 928.3,171.4 1208,196.2 "/>
<polygon class="st48" points="919,-2.7 1094.9,65 1177.1,9.8 1089.7,-1.8 "/>
<polygon class="st43" points="1060.9,353.3 1088.7,284 994.1,248.8 "/>
<polygon class="st46" points="1008.5,471.9 1134.7,405.9 1060.9,353.3 "/>
<polygon class="st49" points="1203.9,425.8 1008.5,471.9 1134.7,405.9 "/>
<polygon class="st50" points="1165.1,336.2 1134.7,405.9 1060.9,353.3 "/>
<polygon class="st51" points="1088.7,284 1060.9,353.3 1165.1,336.2 "/>
<polygon class="st50" points="1208,196.2 1088.7,284 994.1,248.8 "/>
<polygon class="st43" points="1203.9,425.8 1273.2,487 1008.5,471.9 "/>
<polygon class="st52" points="1094.9,65 1169.8,61.9 1177.1,9.8 "/>
<polygon class="st47" points="1208,196.2 1169.8,61.9 1094.9,65 "/>
<polygon class="st50" points="1268.2,79.2 1169.8,61.9 1177.1,9.8 "/>
<polygon class="st53" points="1208,196.2 1253.4,171.4 1169.8,61.9 "/>
<polygon class="st54" points="1268.2,79.2 1253.4,171.4 1169.8,61.9 "/>
<polygon class="st43" points="1165.1,336.2 1088.7,284 1208,196.2 "/>
<polygon class="st55" points="1203.9,425.8 1227.3,417.5 1165.1,336.2 1134.7,405.9 "/>
<polygon class="st56" points="1222.9,318.7 1227.3,417.5 1165.1,336.2 "/>
<polygon class="st52" points="1183,277.7 1222.9,318.7 1165.1,336.2 "/>
<polygon class="st57" points="1008.5,471.9 1161.7,500.4 1275.8,500.4 1273.2,487 "/>
<polygon class="st51" points="1227.3,417.5 1203.9,425.8 1273.2,487 "/>
<polygon class="st49" points="1222.9,318.7 1288.5,302.3 1268.2,217 1183,277.7 "/>
<polygon class="st51" points="1227.3,417.5 1300,398.1 1300,344.8 1222.9,318.7 "/>
<polygon class="st43" points="1288.5,302.3 1300,344.8 1222.9,318.7 "/>
<polygon class="st58" points="1275.8,500.4 1300,500.4 1300,463.2 1227.3,416.6 1273.2,487 "/>
<polygon class="st59" points="1300,398.1 1227.3,417.5 1300,463.2 "/>
<polygon class="st49" points="1253.4,171.4 1268.2,217 1208,196.2 "/>
<polygon class="st49" points="1183,277.7 1208,196.2 1268.2,217 "/>
<polygon class="st46" points="1089.7,-1.8 1177.1,9.8 1268.2,79.2 1253.4,171.4 1300,344.8 1300,-2.7 "/>
<polygon class="st4" points="60.1,223.8 124.6,248.8 128.5,247.8 "/>
<polygon class="st60" points="308.5,342.6 174.2,367.7 143,327.5 174.2,364.7 "/>
</svg>
