<?xml version="1.0" encoding="utf-8"?>
<!-- Generator: Adobe Illustrator 22.1.0, SVG Export Plug-In . SVG Version: 6.00 Build 0)  -->
<svg version="1.1" id="Слой_1" xmlns="http://www.w3.org/2000/svg" xmlns:xlink="http://www.w3.org/1999/xlink" x="0px" y="0px"
	 viewBox="0 0 283.5 283.5" style="enable-background:new 0 0 283.5 283.5;" xml:space="preserve">
<style type="text/css">
	.st0{opacity:0.3;fill:#606060;enable-background:new    ;}
	.st1{fill:#477277;}
</style>
<path class="st0" d="M168.4,226.4l-34.6,48.5c-1.8,2.5-5.5,2.5-7.3,0l-14.6-20.5c-1,0.2-2,0.3-3.1,0.3H26.1
	c-9.3,0-16.9-7.6-16.9-16.9V28.7c0-9.3,7.6-16.8,16.9-16.8h82.7c9.3,0,16.8,7.5,16.8,16.8v190.6h39.1
	C168.4,219.3,170.5,223.4,168.4,226.4z"/>
<path class="st1" d="M262.4,248H46.1c-9.3,0-16.9-7.5-16.9-16.9V18.5c0-9.3,7.5-16.9,16.9-16.9h216.3c9.3,0,16.9,7.5,16.9,16.9
	v212.7C279.2,240.5,271.7,248,262.4,248z"/>
<path class="st1" d="M157.9,280l34.6-48.5c2.1-3,0-7.1-3.6-7.1h-69.2c-3.6,0-5.8,4.1-3.6,7.1l34.6,48.5
	C152.4,282.5,156.1,282.5,157.9,280z"/>
<path class="st1" d="M279.2,63.2h-250V18.5c0-9.3,7.5-16.9,16.9-16.9h216.3c9.3,0,16.9,7.5,16.9,16.9v44.7H279.2z"/>
</svg>
